<svg xmlns="http://www.w3.org/2000/svg" width="1120" height="1080" viewBox="0 0 1120 1080">
<rect width="100%" height="100%" fill="white"/>
<text x="560" y="29" text-anchor="middle" font-family="sans-serif" font-size="30.5">Thermodynamic extrapolation in linearized correction coordinates</text>
<rect x="105" y="55" width="430" height="185" fill="none" stroke="#555"/>
<line x1="105" y1="240.0" x2="535" y2="240.0" stroke="#e5e7eb"/>
<text class="tick-label" x="97" y="244.0" text-anchor="end" font-family="sans-serif" font-size="20.4">-0.45</text>
<line x1="105" y1="193.8" x2="535" y2="193.8" stroke="#e5e7eb"/>
<text class="tick-label" x="97" y="197.8" text-anchor="end" font-family="sans-serif" font-size="20.4">-0.24</text>
<line x1="105" y1="147.5" x2="535" y2="147.5" stroke="#e5e7eb"/>
<text class="tick-label" x="97" y="151.5" text-anchor="end" font-family="sans-serif" font-size="20.4">-0.03</text>
<line x1="105" y1="101.2" x2="535" y2="101.2" stroke="#e5e7eb"/>
<text class="tick-label" x="97" y="105.2" text-anchor="end" font-family="sans-serif" font-size="20.4">0.17</text>
<line x1="105" y1="55.0" x2="535" y2="55.0" stroke="#e5e7eb"/>
<text class="tick-label" x="97" y="59.0" text-anchor="end" font-family="sans-serif" font-size="20.4">0.38</text>
<text class="tick-label" x="105.0" y="262" text-anchor="middle" font-family="sans-serif" font-size="20.4">0.00</text>
<text class="tick-label" x="212.5" y="262" text-anchor="middle" font-family="sans-serif" font-size="20.4">0.12</text>
<text class="tick-label" x="320.0" y="262" text-anchor="middle" font-family="sans-serif" font-size="20.4">0.25</text>
<text class="tick-label" x="427.5" y="262" text-anchor="middle" font-family="sans-serif" font-size="20.4">0.37</text>
<text class="tick-label" x="535.0" y="262" text-anchor="middle" font-family="sans-serif" font-size="20.4">0.49</text>
<polyline points="105.0,135.3 109.3,136.4 113.6,137.4 117.9,138.4 122.2,139.4 126.5,140.5 130.8,141.5 135.1,142.5 139.4,143.6 143.7,144.6 148.0,145.6 152.3,146.7 156.6,147.7 160.9,148.7 165.2,149.8 169.5,150.8 173.8,151.8 178.1,152.8 182.4,153.9 186.7,154.9 191.0,155.9 195.3,157.0 199.6,158.0 203.9,159.0 208.2,160.1 212.5,161.1 216.8,162.1 221.1,163.2 225.4,164.2 229.7,165.2 234.0,166.2 238.3,167.3 242.6,168.3 246.9,169.3 251.2,170.4 255.5,171.4 259.8,172.4 264.1,173.5 268.4,174.5 272.7,175.5 277.0,176.6 281.3,177.6 285.6,178.6 289.9,179.6 294.2,180.7 298.5,181.7 302.8,182.7 307.1,183.8 311.4,184.8 315.7,185.8 320.0,186.9 324.3,187.9 328.6,188.9 332.9,190.0 337.2,191.0 341.5,192.0 345.8,193.0 350.1,194.1 354.4,195.1 358.7,196.1 363.0,197.2 367.3,198.2 371.6,199.2 375.9,200.3 380.2,201.3 384.5,202.3 388.8,203.4 393.1,204.4 397.4,205.4 401.7,206.4 406.0,207.5 410.3,208.5 414.6,209.5 418.9,210.6 423.2,211.6 427.5,212.6 431.8,213.7 436.1,214.7 440.4,215.7 444.7,216.7 449.0,217.8 453.3,218.8 457.6,219.8 461.9,220.9 466.2,221.9 470.5,222.9 474.8,224.0 479.1,225.0 483.4,226.0 487.7,227.1 492.0,228.1 496.3,229.1 500.6,230.1 504.9,231.2 509.2,232.2 513.5,233.2 517.8,234.3 522.1,235.3 526.4,236.3 530.7,237.4 535.0,238.4" fill="none" stroke="#0f766e" stroke-width="2"/>
<line x1="503.1" y1="232.0" x2="503.1" y2="229.7" stroke="#2563eb"/>
<circle cx="503.1" cy="230.8" r="4" fill="white" stroke="#2563eb" stroke-width="1.5"/>
<line x1="454.1" y1="222.8" x2="454.1" y2="218.7" stroke="#2563eb"/>
<circle cx="454.1" cy="220.7" r="4" fill="white" stroke="#2563eb" stroke-width="1.5"/>
<line x1="411.1" y1="208.3" x2="411.1" y2="206.3" stroke="#2563eb"/>
<circle cx="411.1" cy="207.3" r="4" fill="white" stroke="#2563eb" stroke-width="1.5"/>
<line x1="373.4" y1="201.2" x2="373.4" y2="199.4" stroke="#2563eb"/>
<circle cx="373.4" cy="200.3" r="4" fill="white" stroke="#2563eb" stroke-width="1.5"/>
<line x1="353.6" y1="199.8" x2="353.6" y2="193.0" stroke="#2563eb"/>
<circle cx="353.6" cy="196.4" r="4" fill="white" stroke="#2563eb" stroke-width="1.5"/>
<line x1="340.4" y1="193.1" x2="340.4" y2="191.3" stroke="#2563eb"/>
<circle cx="340.4" cy="192.2" r="4" fill="white" stroke="#2563eb" stroke-width="1.5"/>
<line x1="323.0" y1="194.4" x2="323.0" y2="185.4" stroke="#2563eb"/>
<circle cx="323.0" cy="189.9" r="4" fill="white" stroke="#2563eb" stroke-width="1.5"/>
<line x1="311.4" y1="184.0" x2="311.4" y2="179.4" stroke="#2563eb"/>
<circle cx="311.4" cy="181.7" r="4" fill="white" stroke="#2563eb" stroke-width="1.5"/>
<text x="113" y="75" font-family="sans-serif" font-size="22.1">σ=1.875, Rₚ</text>
<text x="527" y="75" text-anchor="end" font-family="sans-serif" font-size="18.7">Rₚ,∞=0.020</text>
<text class="axis-label" x="320.0" y="288" text-anchor="middle" font-family="sans-serif" font-size="20.4"><tspan font-style="italic">L</tspan><tspan baseline-shift="super" font-size="13.6">−q</tspan></text>
<text x="298.5" y="163.7" text-anchor="middle" font-family="sans-serif" font-size="18.7" font-style="italic">q = 0.19</text>
<text x="50" y="147.5" text-anchor="middle" font-family="sans-serif" font-size="20.4" transform="rotate(-90 50 147.5)">Rₚ(L)</text>
<rect x="630" y="55" width="430" height="185" fill="none" stroke="#555"/>
<line x1="630" y1="240.0" x2="1060" y2="240.0" stroke="#e5e7eb"/>
<text class="tick-label" x="622" y="244.0" text-anchor="end" font-family="sans-serif" font-size="20.4">-0.45</text>
<line x1="630" y1="193.8" x2="1060" y2="193.8" stroke="#e5e7eb"/>
<text class="tick-label" x="622" y="197.8" text-anchor="end" font-family="sans-serif" font-size="20.4">-0.24</text>
<line x1="630" y1="147.5" x2="1060" y2="147.5" stroke="#e5e7eb"/>
<text class="tick-label" x="622" y="151.5" text-anchor="end" font-family="sans-serif" font-size="20.4">-0.03</text>
<line x1="630" y1="101.2" x2="1060" y2="101.2" stroke="#e5e7eb"/>
<text class="tick-label" x="622" y="105.2" text-anchor="end" font-family="sans-serif" font-size="20.4">0.17</text>
<line x1="630" y1="55.0" x2="1060" y2="55.0" stroke="#e5e7eb"/>
<text class="tick-label" x="622" y="59.0" text-anchor="end" font-family="sans-serif" font-size="20.4">0.38</text>
<text class="tick-label" x="630.0" y="262" text-anchor="middle" font-family="sans-serif" font-size="20.4">0.00</text>
<text class="tick-label" x="737.5" y="262" text-anchor="middle" font-family="sans-serif" font-size="20.4">0.03</text>
<text class="tick-label" x="845.0" y="262" text-anchor="middle" font-family="sans-serif" font-size="20.4">0.06</text>
<text class="tick-label" x="952.5" y="262" text-anchor="middle" font-family="sans-serif" font-size="20.4">0.09</text>
<text class="tick-label" x="1060.0" y="262" text-anchor="middle" font-family="sans-serif" font-size="20.4">0.12</text>
<polyline points="630.0,67.3 634.3,69.1 638.6,70.9 642.9,72.6 647.2,74.4 651.5,76.1 655.8,77.9 660.1,79.7 664.4,81.4 668.7,83.2 673.0,85.0 677.3,86.7 681.6,88.5 685.9,90.3 690.2,92.0 694.5,93.8 698.8,95.6 703.1,97.3 707.4,99.1 711.7,100.9 716.0,102.6 720.3,104.4 724.6,106.2 728.9,107.9 733.2,109.7 737.5,111.5 741.8,113.2 746.1,115.0 750.4,116.8 754.7,118.5 759.0,120.3 763.3,122.1 767.6,123.8 771.9,125.6 776.2,127.4 780.5,129.1 784.8,130.9 789.1,132.7 793.4,134.4 797.7,136.2 802.0,137.9 806.3,139.7 810.6,141.5 814.9,143.2 819.2,145.0 823.5,146.8 827.8,148.5 832.1,150.3 836.4,152.1 840.7,153.8 845.0,155.6 849.3,157.4 853.6,159.1 857.9,160.9 862.2,162.7 866.5,164.4 870.8,166.2 875.1,168.0 879.4,169.7 883.7,171.5 888.0,173.3 892.3,175.0 896.6,176.8 900.9,178.6 905.2,180.3 909.5,182.1 913.8,183.9 918.1,185.6 922.4,187.4 926.7,189.2 931.0,190.9 935.3,192.7 939.6,194.4 943.9,196.2 948.2,198.0 952.5,199.7 956.8,201.5 961.1,203.3 965.4,205.0 969.7,206.8 974.0,208.6 978.3,210.3 982.6,212.1 986.9,213.9 991.2,215.6 995.5,217.4 999.8,219.2 1004.1,220.9 1008.4,222.7 1012.7,224.5 1017.0,226.2 1021.3,228.0 1025.6,229.8 1029.9,231.5 1034.2,233.3 1038.5,235.1 1042.8,236.8 1047.1,238.6 1051.4,240.4 1055.7,242.1 1060.0,243.9" fill="none" stroke="#c2410c" stroke-width="2"/>
<line x1="1028.1" y1="232.0" x2="1028.1" y2="229.7" stroke="#2563eb"/>
<circle cx="1028.1" cy="230.8" r="4" fill="white" stroke="#2563eb" stroke-width="1.5"/>
<line x1="999.2" y1="222.8" x2="999.2" y2="218.7" stroke="#2563eb"/>
<circle cx="999.2" cy="220.7" r="4" fill="white" stroke="#2563eb" stroke-width="1.5"/>
<line x1="974.2" y1="208.3" x2="974.2" y2="206.3" stroke="#2563eb"/>
<circle cx="974.2" cy="207.3" r="4" fill="white" stroke="#2563eb" stroke-width="1.5"/>
<line x1="952.3" y1="201.2" x2="952.3" y2="199.4" stroke="#2563eb"/>
<circle cx="952.3" cy="200.3" r="4" fill="white" stroke="#2563eb" stroke-width="1.5"/>
<line x1="940.8" y1="199.8" x2="940.8" y2="193.0" stroke="#2563eb"/>
<circle cx="940.8" cy="196.4" r="4" fill="white" stroke="#2563eb" stroke-width="1.5"/>
<line x1="933.1" y1="193.1" x2="933.1" y2="191.3" stroke="#2563eb"/>
<circle cx="933.1" cy="192.2" r="4" fill="white" stroke="#2563eb" stroke-width="1.5"/>
<line x1="922.9" y1="194.4" x2="922.9" y2="185.4" stroke="#2563eb"/>
<circle cx="922.9" cy="189.9" r="4" fill="white" stroke="#2563eb" stroke-width="1.5"/>
<line x1="916.0" y1="184.0" x2="916.0" y2="179.4" stroke="#2563eb"/>
<circle cx="916.0" cy="181.7" r="4" fill="white" stroke="#2563eb" stroke-width="1.5"/>
<text x="638" y="75" font-family="sans-serif" font-size="22.1">σ=1.875, Rₚ</text>
<text x="1052" y="75" text-anchor="end" font-family="sans-serif" font-size="18.7">Rₚ,∞=0.325</text>
<text class="axis-label" x="845.0" y="288" text-anchor="middle" font-family="sans-serif" font-size="20.4">1/log(<tspan font-style="italic">L</tspan>/<tspan font-style="italic">q</tspan>)</text>
<text x="823.5" y="128.8" text-anchor="middle" font-family="sans-serif" font-size="18.7" font-style="italic">q = 0.00928</text>
<text x="575" y="147.5" text-anchor="middle" font-family="sans-serif" font-size="20.4" transform="rotate(-90 575 147.5)">Rₚ(L)</text>
<rect x="105" y="310" width="430" height="185" fill="none" stroke="#555"/>
<line x1="105" y1="495.0" x2="535" y2="495.0" stroke="#e5e7eb"/>
<text class="tick-label" x="97" y="499.0" text-anchor="end" font-family="sans-serif" font-size="20.4">-0.32</text>
<line x1="105" y1="448.8" x2="535" y2="448.8" stroke="#e5e7eb"/>
<text class="tick-label" x="97" y="452.8" text-anchor="end" font-family="sans-serif" font-size="20.4">-0.05</text>
<line x1="105" y1="402.5" x2="535" y2="402.5" stroke="#e5e7eb"/>
<text class="tick-label" x="97" y="406.5" text-anchor="end" font-family="sans-serif" font-size="20.4">0.22</text>
<line x1="105" y1="356.2" x2="535" y2="356.2" stroke="#e5e7eb"/>
<text class="tick-label" x="97" y="360.2" text-anchor="end" font-family="sans-serif" font-size="20.4">0.48</text>
<line x1="105" y1="310.0" x2="535" y2="310.0" stroke="#e5e7eb"/>
<text class="tick-label" x="97" y="314.0" text-anchor="end" font-family="sans-serif" font-size="20.4">0.75</text>
<text class="tick-label" x="105.0" y="517" text-anchor="middle" font-family="sans-serif" font-size="20.4">0.00</text>
<text class="tick-label" x="212.5" y="517" text-anchor="middle" font-family="sans-serif" font-size="20.4">0.15</text>
<text class="tick-label" x="320.0" y="517" text-anchor="middle" font-family="sans-serif" font-size="20.4">0.31</text>
<text class="tick-label" x="427.5" y="517" text-anchor="middle" font-family="sans-serif" font-size="20.4">0.46</text>
<text class="tick-label" x="535.0" y="517" text-anchor="middle" font-family="sans-serif" font-size="20.4">0.62</text>
<polyline points="105.0,395.3 109.3,396.3 113.6,397.3 117.9,398.3 122.2,399.2 126.5,400.2 130.8,401.2 135.1,402.2 139.4,403.2 143.7,404.2 148.0,405.2 152.3,406.2 156.6,407.2 160.9,408.2 165.2,409.2 169.5,410.1 173.8,411.1 178.1,412.1 182.4,413.1 186.7,414.1 191.0,415.1 195.3,416.1 199.6,417.1 203.9,418.1 208.2,419.1 212.5,420.1 216.8,421.0 221.1,422.0 225.4,423.0 229.7,424.0 234.0,425.0 238.3,426.0 242.6,427.0 246.9,428.0 251.2,429.0 255.5,430.0 259.8,430.9 264.1,431.9 268.4,432.9 272.7,433.9 277.0,434.9 281.3,435.9 285.6,436.9 289.9,437.9 294.2,438.9 298.5,439.9 302.8,440.9 307.1,441.8 311.4,442.8 315.7,443.8 320.0,444.8 324.3,445.8 328.6,446.8 332.9,447.8 337.2,448.8 341.5,449.8 345.8,450.8 350.1,451.8 354.4,452.7 358.7,453.7 363.0,454.7 367.3,455.7 371.6,456.7 375.9,457.7 380.2,458.7 384.5,459.7 388.8,460.7 393.1,461.7 397.4,462.7 401.7,463.6 406.0,464.6 410.3,465.6 414.6,466.6 418.9,467.6 423.2,468.6 427.5,469.6 431.8,470.6 436.1,471.6 440.4,472.6 444.7,473.6 449.0,474.5 453.3,475.5 457.6,476.5 461.9,477.5 466.2,478.5 470.5,479.5 474.8,480.5 479.1,481.5 483.4,482.5 487.7,483.5 492.0,484.5 496.3,485.4 500.6,486.4 504.9,487.4 509.2,488.4 513.5,489.4 517.8,490.4 522.1,491.4 526.4,492.4 530.7,493.4 535.0,494.4" fill="none" stroke="#0f766e" stroke-width="2"/>
<line x1="503.1" y1="487.1" x2="503.1" y2="486.8" stroke="#2563eb"/>
<circle cx="503.1" cy="486.9" r="4" fill="white" stroke="#2563eb" stroke-width="1.5"/>
<line x1="467.6" y1="479.9" x2="467.6" y2="472.5" stroke="#2563eb"/>
<circle cx="467.6" cy="476.2" r="4" fill="white" stroke="#2563eb" stroke-width="1.5"/>
<line x1="435.3" y1="472.6" x2="435.3" y2="471.8" stroke="#2563eb"/>
<circle cx="435.3" cy="472.2" r="4" fill="white" stroke="#2563eb" stroke-width="1.5"/>
<line x1="405.8" y1="463.5" x2="405.8" y2="461.1" stroke="#2563eb"/>
<circle cx="405.8" cy="462.3" r="4" fill="white" stroke="#2563eb" stroke-width="1.5"/>
<line x1="389.8" y1="462.2" x2="389.8" y2="458.7" stroke="#2563eb"/>
<circle cx="389.8" cy="460.5" r="4" fill="white" stroke="#2563eb" stroke-width="1.5"/>
<line x1="379.0" y1="464.1" x2="379.0" y2="459.0" stroke="#2563eb"/>
<circle cx="379.0" cy="461.5" r="4" fill="white" stroke="#2563eb" stroke-width="1.5"/>
<line x1="364.4" y1="457.9" x2="364.4" y2="452.8" stroke="#2563eb"/>
<circle cx="364.4" cy="455.4" r="4" fill="white" stroke="#2563eb" stroke-width="1.5"/>
<line x1="354.5" y1="453.2" x2="354.5" y2="452.5" stroke="#2563eb"/>
<circle cx="354.5" cy="452.8" r="4" fill="white" stroke="#2563eb" stroke-width="1.5"/>
<text x="113" y="330" font-family="sans-serif" font-size="22.1">σ=2, Rₚ</text>
<text x="527" y="330" text-anchor="end" font-family="sans-serif" font-size="18.7">Rₚ,∞=0.257</text>
<text class="axis-label" x="320.0" y="543" text-anchor="middle" font-family="sans-serif" font-size="20.4"><tspan font-style="italic">L</tspan><tspan baseline-shift="super" font-size="13.6">−q</tspan></text>
<text x="298.5" y="421.9" text-anchor="middle" font-family="sans-serif" font-size="18.7" font-style="italic">q = 0.135</text>
<text x="50" y="402.5" text-anchor="middle" font-family="sans-serif" font-size="20.4" transform="rotate(-90 50 402.5)">Rₚ(L)</text>
<rect x="630" y="310" width="430" height="185" fill="none" stroke="#555"/>
<line x1="630" y1="495.0" x2="1060" y2="495.0" stroke="#e5e7eb"/>
<text class="tick-label" x="622" y="499.0" text-anchor="end" font-family="sans-serif" font-size="20.4">-0.32</text>
<line x1="630" y1="448.8" x2="1060" y2="448.8" stroke="#e5e7eb"/>
<text class="tick-label" x="622" y="452.8" text-anchor="end" font-family="sans-serif" font-size="20.4">-0.05</text>
<line x1="630" y1="402.5" x2="1060" y2="402.5" stroke="#e5e7eb"/>
<text class="tick-label" x="622" y="406.5" text-anchor="end" font-family="sans-serif" font-size="20.4">0.22</text>
<line x1="630" y1="356.2" x2="1060" y2="356.2" stroke="#e5e7eb"/>
<text class="tick-label" x="622" y="360.2" text-anchor="end" font-family="sans-serif" font-size="20.4">0.48</text>
<line x1="630" y1="310.0" x2="1060" y2="310.0" stroke="#e5e7eb"/>
<text class="tick-label" x="622" y="314.0" text-anchor="end" font-family="sans-serif" font-size="20.4">0.75</text>
<text class="tick-label" x="630.0" y="517" text-anchor="middle" font-family="sans-serif" font-size="20.4">0.00</text>
<text class="tick-label" x="737.5" y="517" text-anchor="middle" font-family="sans-serif" font-size="20.4">0.02</text>
<text class="tick-label" x="845.0" y="517" text-anchor="middle" font-family="sans-serif" font-size="20.4">0.04</text>
<text class="tick-label" x="952.5" y="517" text-anchor="middle" font-family="sans-serif" font-size="20.4">0.06</text>
<text class="tick-label" x="1060.0" y="517" text-anchor="middle" font-family="sans-serif" font-size="20.4">0.08</text>
<polyline points="630.0,320.7 634.3,322.4 638.6,324.2 642.9,326.0 647.2,327.8 651.5,329.6 655.8,331.4 660.1,333.2 664.4,335.0 668.7,336.8 673.0,338.6 677.3,340.4 681.6,342.2 685.9,344.0 690.2,345.8 694.5,347.6 698.8,349.4 703.1,351.2 707.4,353.0 711.7,354.8 716.0,356.6 720.3,358.4 724.6,360.2 728.9,362.0 733.2,363.8 737.5,365.6 741.8,367.4 746.1,369.2 750.4,371.0 754.7,372.8 759.0,374.6 763.3,376.3 767.6,378.1 771.9,379.9 776.2,381.7 780.5,383.5 784.8,385.3 789.1,387.1 793.4,388.9 797.7,390.7 802.0,392.5 806.3,394.3 810.6,396.1 814.9,397.9 819.2,399.7 823.5,401.5 827.8,403.3 832.1,405.1 836.4,406.9 840.7,408.7 845.0,410.5 849.3,412.3 853.6,414.1 857.9,415.9 862.2,417.7 866.5,419.5 870.8,421.3 875.1,423.1 879.4,424.9 883.7,426.7 888.0,428.5 892.3,430.3 896.6,432.0 900.9,433.8 905.2,435.6 909.5,437.4 913.8,439.2 918.1,441.0 922.4,442.8 926.7,444.6 931.0,446.4 935.3,448.2 939.6,450.0 943.9,451.8 948.2,453.6 952.5,455.4 956.8,457.2 961.1,459.0 965.4,460.8 969.7,462.6 974.0,464.4 978.3,466.2 982.6,468.0 986.9,469.8 991.2,471.6 995.5,473.4 999.8,475.2 1004.1,477.0 1008.4,478.8 1012.7,480.6 1017.0,482.4 1021.3,484.2 1025.6,485.9 1029.9,487.7 1034.2,489.5 1038.5,491.3 1042.8,493.1 1047.1,494.9 1051.4,496.7 1055.7,498.5 1060.0,500.3" fill="none" stroke="#c2410c" stroke-width="2"/>
<line x1="1028.1" y1="487.1" x2="1028.1" y2="486.8" stroke="#2563eb"/>
<circle cx="1028.1" cy="486.9" r="4" fill="white" stroke="#2563eb" stroke-width="1.5"/>
<line x1="1008.5" y1="479.9" x2="1008.5" y2="472.5" stroke="#2563eb"/>
<circle cx="1008.5" cy="476.2" r="4" fill="white" stroke="#2563eb" stroke-width="1.5"/>
<line x1="990.7" y1="472.6" x2="990.7" y2="471.8" stroke="#2563eb"/>
<circle cx="990.7" cy="472.2" r="4" fill="white" stroke="#2563eb" stroke-width="1.5"/>
<line x1="974.6" y1="463.5" x2="974.6" y2="461.1" stroke="#2563eb"/>
<circle cx="974.6" cy="462.3" r="4" fill="white" stroke="#2563eb" stroke-width="1.5"/>
<line x1="965.7" y1="462.2" x2="965.7" y2="458.7" stroke="#2563eb"/>
<circle cx="965.7" cy="460.5" r="4" fill="white" stroke="#2563eb" stroke-width="1.5"/>
<line x1="959.8" y1="464.1" x2="959.8" y2="459.0" stroke="#2563eb"/>
<circle cx="959.8" cy="461.5" r="4" fill="white" stroke="#2563eb" stroke-width="1.5"/>
<line x1="951.7" y1="457.9" x2="951.7" y2="452.8" stroke="#2563eb"/>
<circle cx="951.7" cy="455.4" r="4" fill="white" stroke="#2563eb" stroke-width="1.5"/>
<line x1="946.2" y1="453.2" x2="946.2" y2="452.5" stroke="#2563eb"/>
<circle cx="946.2" cy="452.8" r="4" fill="white" stroke="#2563eb" stroke-width="1.5"/>
<text x="638" y="330" font-family="sans-serif" font-size="22.1">σ=2, Rₚ</text>
<text x="1052" y="330" text-anchor="end" font-family="sans-serif" font-size="18.7">Rₚ,∞=0.688</text>
<text class="axis-label" x="845.0" y="543" text-anchor="middle" font-family="sans-serif" font-size="20.4">1/log(<tspan font-style="italic">L</tspan>/<tspan font-style="italic">q</tspan>)</text>
<text x="823.5" y="383.5" text-anchor="middle" font-family="sans-serif" font-size="18.7" font-style="italic">q = 0.0001</text>
<text x="575" y="402.5" text-anchor="middle" font-family="sans-serif" font-size="20.4" transform="rotate(-90 575 402.5)">Rₚ(L)</text>
<rect x="105" y="565" width="430" height="185" fill="none" stroke="#555"/>
<line x1="105" y1="750.0" x2="535" y2="750.0" stroke="#e5e7eb"/>
<text class="tick-label" x="97" y="754.0" text-anchor="end" font-family="sans-serif" font-size="20.4">0.72</text>
<line x1="105" y1="703.8" x2="535" y2="703.8" stroke="#e5e7eb"/>
<text class="tick-label" x="97" y="707.8" text-anchor="end" font-family="sans-serif" font-size="20.4">0.80</text>
<line x1="105" y1="657.5" x2="535" y2="657.5" stroke="#e5e7eb"/>
<text class="tick-label" x="97" y="661.5" text-anchor="end" font-family="sans-serif" font-size="20.4">0.88</text>
<line x1="105" y1="611.2" x2="535" y2="611.2" stroke="#e5e7eb"/>
<text class="tick-label" x="97" y="615.2" text-anchor="end" font-family="sans-serif" font-size="20.4">0.95</text>
<line x1="105" y1="565.0" x2="535" y2="565.0" stroke="#e5e7eb"/>
<text class="tick-label" x="97" y="569.0" text-anchor="end" font-family="sans-serif" font-size="20.4">1.03</text>
<text class="tick-label" x="105.0" y="772" text-anchor="middle" font-family="sans-serif" font-size="20.4">0.00</text>
<text class="tick-label" x="212.5" y="772" text-anchor="middle" font-family="sans-serif" font-size="20.4">0.13</text>
<text class="tick-label" x="320.0" y="772" text-anchor="middle" font-family="sans-serif" font-size="20.4">0.25</text>
<text class="tick-label" x="427.5" y="772" text-anchor="middle" font-family="sans-serif" font-size="20.4">0.38</text>
<text class="tick-label" x="535.0" y="772" text-anchor="middle" font-family="sans-serif" font-size="20.4">0.50</text>
<polyline points="105.0,656.7 109.3,657.5 113.6,658.4 117.9,659.2 122.2,660.1 126.5,661.0 130.8,661.8 135.1,662.7 139.4,663.5 143.7,664.4 148.0,665.2 152.3,666.1 156.6,667.0 160.9,667.8 165.2,668.7 169.5,669.5 173.8,670.4 178.1,671.2 182.4,672.1 186.7,673.0 191.0,673.8 195.3,674.7 199.6,675.5 203.9,676.4 208.2,677.2 212.5,678.1 216.8,678.9 221.1,679.8 225.4,680.7 229.7,681.5 234.0,682.4 238.3,683.2 242.6,684.1 246.9,684.9 251.2,685.8 255.5,686.7 259.8,687.5 264.1,688.4 268.4,689.2 272.7,690.1 277.0,690.9 281.3,691.8 285.6,692.7 289.9,693.5 294.2,694.4 298.5,695.2 302.8,696.1 307.1,696.9 311.4,697.8 315.7,698.7 320.0,699.5 324.3,700.4 328.6,701.2 332.9,702.1 337.2,702.9 341.5,703.8 345.8,704.7 350.1,705.5 354.4,706.4 358.7,707.2 363.0,708.1 367.3,708.9 371.6,709.8 375.9,710.7 380.2,711.5 384.5,712.4 388.8,713.2 393.1,714.1 397.4,714.9 401.7,715.8 406.0,716.6 410.3,717.5 414.6,718.4 418.9,719.2 423.2,720.1 427.5,720.9 431.8,721.8 436.1,722.6 440.4,723.5 444.7,724.4 449.0,725.2 453.3,726.1 457.6,726.9 461.9,727.8 466.2,728.6 470.5,729.5 474.8,730.4 479.1,731.2 483.4,732.1 487.7,732.9 492.0,733.8 496.3,734.6 500.6,735.5 504.9,736.4 509.2,737.2 513.5,738.1 517.8,738.9 522.1,739.8 526.4,740.6 530.7,741.5 535.0,742.4" fill="none" stroke="#0f766e" stroke-width="2"/>
<line x1="503.1" y1="736.8" x2="503.1" y2="735.1" stroke="#2563eb"/>
<circle cx="503.1" cy="735.9" r="4" fill="white" stroke="#2563eb" stroke-width="1.5"/>
<line x1="455.4" y1="729.4" x2="455.4" y2="725.6" stroke="#2563eb"/>
<circle cx="455.4" cy="727.5" r="4" fill="white" stroke="#2563eb" stroke-width="1.5"/>
<line x1="413.3" y1="718.9" x2="413.3" y2="716.6" stroke="#2563eb"/>
<circle cx="413.3" cy="717.8" r="4" fill="white" stroke="#2563eb" stroke-width="1.5"/>
<line x1="376.3" y1="712.0" x2="376.3" y2="710.1" stroke="#2563eb"/>
<circle cx="376.3" cy="711.1" r="4" fill="white" stroke="#2563eb" stroke-width="1.5"/>
<line x1="356.8" y1="709.7" x2="356.8" y2="706.1" stroke="#2563eb"/>
<circle cx="356.8" cy="707.9" r="4" fill="white" stroke="#2563eb" stroke-width="1.5"/>
<line x1="343.8" y1="704.4" x2="343.8" y2="702.9" stroke="#2563eb"/>
<circle cx="343.8" cy="703.6" r="4" fill="white" stroke="#2563eb" stroke-width="1.5"/>
<line x1="326.6" y1="704.5" x2="326.6" y2="700.0" stroke="#2563eb"/>
<circle cx="326.6" cy="702.3" r="4" fill="white" stroke="#2563eb" stroke-width="1.5"/>
<line x1="315.1" y1="699.8" x2="315.1" y2="697.7" stroke="#2563eb"/>
<circle cx="315.1" cy="698.7" r="4" fill="white" stroke="#2563eb" stroke-width="1.5"/>
<text x="113" y="585" font-family="sans-serif" font-size="22.1">σ=1.875, Qₘ</text>
<text x="527" y="585" text-anchor="end" font-family="sans-serif" font-size="18.7">Qₘ,∞=0.876</text>
<text class="axis-label" x="320.0" y="798" text-anchor="middle" font-family="sans-serif" font-size="20.4"><tspan font-style="italic">L</tspan><tspan baseline-shift="super" font-size="13.6">−q</tspan></text>
<text x="298.5" y="677.2" text-anchor="middle" font-family="sans-serif" font-size="18.7" font-style="italic">q = 0.184</text>
<text x="50" y="657.5" text-anchor="middle" font-family="sans-serif" font-size="20.4" transform="rotate(-90 50 657.5)">Qₘ(L)</text>
<rect x="630" y="565" width="430" height="185" fill="none" stroke="#555"/>
<line x1="630" y1="750.0" x2="1060" y2="750.0" stroke="#e5e7eb"/>
<text class="tick-label" x="622" y="754.0" text-anchor="end" font-family="sans-serif" font-size="20.4">0.72</text>
<line x1="630" y1="703.8" x2="1060" y2="703.8" stroke="#e5e7eb"/>
<text class="tick-label" x="622" y="707.8" text-anchor="end" font-family="sans-serif" font-size="20.4">0.80</text>
<line x1="630" y1="657.5" x2="1060" y2="657.5" stroke="#e5e7eb"/>
<text class="tick-label" x="622" y="661.5" text-anchor="end" font-family="sans-serif" font-size="20.4">0.88</text>
<line x1="630" y1="611.2" x2="1060" y2="611.2" stroke="#e5e7eb"/>
<text class="tick-label" x="622" y="615.2" text-anchor="end" font-family="sans-serif" font-size="20.4">0.95</text>
<line x1="630" y1="565.0" x2="1060" y2="565.0" stroke="#e5e7eb"/>
<text class="tick-label" x="622" y="569.0" text-anchor="end" font-family="sans-serif" font-size="20.4">1.03</text>
<text class="tick-label" x="630.0" y="772" text-anchor="middle" font-family="sans-serif" font-size="20.4">0.00</text>
<text class="tick-label" x="737.5" y="772" text-anchor="middle" font-family="sans-serif" font-size="20.4">0.03</text>
<text class="tick-label" x="845.0" y="772" text-anchor="middle" font-family="sans-serif" font-size="20.4">0.06</text>
<text class="tick-label" x="952.5" y="772" text-anchor="middle" font-family="sans-serif" font-size="20.4">0.09</text>
<text class="tick-label" x="1060.0" y="772" text-anchor="middle" font-family="sans-serif" font-size="20.4">0.12</text>
<polyline points="630.0,597.2 634.3,598.7 638.6,600.2 642.9,601.7 647.2,603.2 651.5,604.7 655.8,606.2 660.1,607.7 664.4,609.2 668.7,610.7 673.0,612.2 677.3,613.7 681.6,615.2 685.9,616.7 690.2,618.2 694.5,619.7 698.8,621.2 703.1,622.7 707.4,624.2 711.7,625.7 716.0,627.2 720.3,628.7 724.6,630.2 728.9,631.7 733.2,633.2 737.5,634.7 741.8,636.2 746.1,637.7 750.4,639.2 754.7,640.7 759.0,642.2 763.3,643.7 767.6,645.2 771.9,646.7 776.2,648.2 780.5,649.7 784.8,651.2 789.1,652.7 793.4,654.2 797.7,655.7 802.0,657.2 806.3,658.7 810.6,660.2 814.9,661.7 819.2,663.2 823.5,664.7 827.8,666.2 832.1,667.7 836.4,669.2 840.7,670.7 845.0,672.2 849.3,673.7 853.6,675.2 857.9,676.7 862.2,678.2 866.5,679.7 870.8,681.2 875.1,682.7 879.4,684.2 883.7,685.7 888.0,687.2 892.3,688.7 896.6,690.2 900.9,691.7 905.2,693.2 909.5,694.7 913.8,696.2 918.1,697.6 922.4,699.1 926.7,700.6 931.0,702.1 935.3,703.6 939.6,705.1 943.9,706.6 948.2,708.1 952.5,709.6 956.8,711.1 961.1,712.6 965.4,714.1 969.7,715.6 974.0,717.1 978.3,718.6 982.6,720.1 986.9,721.6 991.2,723.1 995.5,724.6 999.8,726.1 1004.1,727.6 1008.4,729.1 1012.7,730.6 1017.0,732.1 1021.3,733.6 1025.6,735.1 1029.9,736.6 1034.2,738.1 1038.5,739.6 1042.8,741.1 1047.1,742.6 1051.4,744.1 1055.7,745.6 1060.0,747.1" fill="none" stroke="#c2410c" stroke-width="2"/>
<line x1="1028.1" y1="736.8" x2="1028.1" y2="735.1" stroke="#2563eb"/>
<circle cx="1028.1" cy="735.9" r="4" fill="white" stroke="#2563eb" stroke-width="1.5"/>
<line x1="1000.7" y1="729.4" x2="1000.7" y2="725.6" stroke="#2563eb"/>
<circle cx="1000.7" cy="727.5" r="4" fill="white" stroke="#2563eb" stroke-width="1.5"/>
<line x1="976.7" y1="718.9" x2="976.7" y2="716.6" stroke="#2563eb"/>
<circle cx="976.7" cy="717.8" r="4" fill="white" stroke="#2563eb" stroke-width="1.5"/>
<line x1="955.7" y1="712.0" x2="955.7" y2="710.1" stroke="#2563eb"/>
<circle cx="955.7" cy="711.1" r="4" fill="white" stroke="#2563eb" stroke-width="1.5"/>
<line x1="944.6" y1="709.7" x2="944.6" y2="706.1" stroke="#2563eb"/>
<circle cx="944.6" cy="707.9" r="4" fill="white" stroke="#2563eb" stroke-width="1.5"/>
<line x1="937.1" y1="704.4" x2="937.1" y2="702.9" stroke="#2563eb"/>
<circle cx="937.1" cy="703.6" r="4" fill="white" stroke="#2563eb" stroke-width="1.5"/>
<line x1="927.2" y1="704.5" x2="927.2" y2="700.0" stroke="#2563eb"/>
<circle cx="927.2" cy="702.3" r="4" fill="white" stroke="#2563eb" stroke-width="1.5"/>
<line x1="920.5" y1="699.8" x2="920.5" y2="697.7" stroke="#2563eb"/>
<circle cx="920.5" cy="698.7" r="4" fill="white" stroke="#2563eb" stroke-width="1.5"/>
<text x="638" y="585" font-family="sans-serif" font-size="22.1">σ=1.875, Qₘ</text>
<text x="1052" y="585" text-anchor="end" font-family="sans-serif" font-size="18.7">Qₘ,∞=0.976</text>
<text class="axis-label" x="845.0" y="798" text-anchor="middle" font-family="sans-serif" font-size="20.4">1/log(<tspan font-style="italic">L</tspan>/<tspan font-style="italic">q</tspan>)</text>
<text x="823.5" y="646.7" text-anchor="middle" font-family="sans-serif" font-size="18.7" font-style="italic">q = 0.00555</text>
<text x="575" y="657.5" text-anchor="middle" font-family="sans-serif" font-size="20.4" transform="rotate(-90 575 657.5)">Qₘ(L)</text>
<rect x="105" y="820" width="430" height="185" fill="none" stroke="#555"/>
<line x1="105" y1="1005.0" x2="535" y2="1005.0" stroke="#e5e7eb"/>
<text class="tick-label" x="97" y="1009.0" text-anchor="end" font-family="sans-serif" font-size="20.4">0.75</text>
<line x1="105" y1="958.8" x2="535" y2="958.8" stroke="#e5e7eb"/>
<text class="tick-label" x="97" y="962.8" text-anchor="end" font-family="sans-serif" font-size="20.4">0.83</text>
<line x1="105" y1="912.5" x2="535" y2="912.5" stroke="#e5e7eb"/>
<text class="tick-label" x="97" y="916.5" text-anchor="end" font-family="sans-serif" font-size="20.4">0.92</text>
<line x1="105" y1="866.2" x2="535" y2="866.2" stroke="#e5e7eb"/>
<text class="tick-label" x="97" y="870.2" text-anchor="end" font-family="sans-serif" font-size="20.4">1.00</text>
<line x1="105" y1="820.0" x2="535" y2="820.0" stroke="#e5e7eb"/>
<text class="tick-label" x="97" y="824.0" text-anchor="end" font-family="sans-serif" font-size="20.4">1.08</text>
<text class="tick-label" x="105.0" y="1027" text-anchor="middle" font-family="sans-serif" font-size="20.4">0.00</text>
<text class="tick-label" x="212.5" y="1027" text-anchor="middle" font-family="sans-serif" font-size="20.4">0.15</text>
<text class="tick-label" x="320.0" y="1027" text-anchor="middle" font-family="sans-serif" font-size="20.4">0.29</text>
<text class="tick-label" x="427.5" y="1027" text-anchor="middle" font-family="sans-serif" font-size="20.4">0.44</text>
<text class="tick-label" x="535.0" y="1027" text-anchor="middle" font-family="sans-serif" font-size="20.4">0.58</text>
<polyline points="105.0,908.5 109.3,909.3 113.6,910.2 117.9,911.1 122.2,912.0 126.5,912.9 130.8,913.8 135.1,914.7 139.4,915.6 143.7,916.5 148.0,917.4 152.3,918.2 156.6,919.1 160.9,920.0 165.2,920.9 169.5,921.8 173.8,922.7 178.1,923.6 182.4,924.5 186.7,925.4 191.0,926.3 195.3,927.1 199.6,928.0 203.9,928.9 208.2,929.8 212.5,930.7 216.8,931.6 221.1,932.5 225.4,933.4 229.7,934.3 234.0,935.2 238.3,936.0 242.6,936.9 246.9,937.8 251.2,938.7 255.5,939.6 259.8,940.5 264.1,941.4 268.4,942.3 272.7,943.2 277.0,944.1 281.3,944.9 285.6,945.8 289.9,946.7 294.2,947.6 298.5,948.5 302.8,949.4 307.1,950.3 311.4,951.2 315.7,952.1 320.0,953.0 324.3,953.8 328.6,954.7 332.9,955.6 337.2,956.5 341.5,957.4 345.8,958.3 350.1,959.2 354.4,960.1 358.7,961.0 363.0,961.9 367.3,962.7 371.6,963.6 375.9,964.5 380.2,965.4 384.5,966.3 388.8,967.2 393.1,968.1 397.4,969.0 401.7,969.9 406.0,970.8 410.3,971.6 414.6,972.5 418.9,973.4 423.2,974.3 427.5,975.2 431.8,976.1 436.1,977.0 440.4,977.9 444.7,978.8 449.0,979.7 453.3,980.5 457.6,981.4 461.9,982.3 466.2,983.2 470.5,984.1 474.8,985.0 479.1,985.9 483.4,986.8 487.7,987.7 492.0,988.6 496.3,989.4 500.6,990.3 504.9,991.2 509.2,992.1 513.5,993.0 517.8,993.9 522.1,994.8 526.4,995.7 530.7,996.6 535.0,997.5" fill="none" stroke="#0f766e" stroke-width="2"/>
<line x1="503.1" y1="991.2" x2="503.1" y2="990.4" stroke="#2563eb"/>
<circle cx="503.1" cy="990.8" r="4" fill="white" stroke="#2563eb" stroke-width="1.5"/>
<line x1="464.0" y1="983.3" x2="464.0" y2="977.3" stroke="#2563eb"/>
<circle cx="464.0" cy="980.3" r="4" fill="white" stroke="#2563eb" stroke-width="1.5"/>
<line x1="428.8" y1="976.1" x2="428.8" y2="975.9" stroke="#2563eb"/>
<circle cx="428.8" cy="976.0" r="4" fill="white" stroke="#2563eb" stroke-width="1.5"/>
<line x1="397.0" y1="968.5" x2="397.0" y2="967.6" stroke="#2563eb"/>
<circle cx="397.0" cy="968.1" r="4" fill="white" stroke="#2563eb" stroke-width="1.5"/>
<line x1="379.8" y1="966.6" x2="379.8" y2="964.1" stroke="#2563eb"/>
<circle cx="379.8" cy="965.4" r="4" fill="white" stroke="#2563eb" stroke-width="1.5"/>
<line x1="368.3" y1="967.0" x2="368.3" y2="964.2" stroke="#2563eb"/>
<circle cx="368.3" cy="965.6" r="4" fill="white" stroke="#2563eb" stroke-width="1.5"/>
<line x1="352.8" y1="963.7" x2="352.8" y2="959.0" stroke="#2563eb"/>
<circle cx="352.8" cy="961.4" r="4" fill="white" stroke="#2563eb" stroke-width="1.5"/>
<line x1="342.4" y1="958.1" x2="342.4" y2="956.9" stroke="#2563eb"/>
<circle cx="342.4" cy="957.5" r="4" fill="white" stroke="#2563eb" stroke-width="1.5"/>
<text x="113" y="840" font-family="sans-serif" font-size="22.1">σ=2, Qₘ</text>
<text x="527" y="840" text-anchor="end" font-family="sans-serif" font-size="18.7">Qₘ,∞=0.922</text>
<text class="axis-label" x="320.0" y="1053" text-anchor="middle" font-family="sans-serif" font-size="20.4"><tspan font-style="italic">L</tspan><tspan baseline-shift="super" font-size="13.6">−q</tspan></text>
<text x="298.5" y="930.5" text-anchor="middle" font-family="sans-serif" font-size="18.7" font-style="italic">q = 0.149</text>
<text x="50" y="912.5" text-anchor="middle" font-family="sans-serif" font-size="20.4" transform="rotate(-90 50 912.5)">Qₘ(L)</text>
<rect x="630" y="820" width="430" height="185" fill="none" stroke="#555"/>
<line x1="630" y1="1005.0" x2="1060" y2="1005.0" stroke="#e5e7eb"/>
<text class="tick-label" x="622" y="1009.0" text-anchor="end" font-family="sans-serif" font-size="20.4">0.75</text>
<line x1="630" y1="958.8" x2="1060" y2="958.8" stroke="#e5e7eb"/>
<text class="tick-label" x="622" y="962.8" text-anchor="end" font-family="sans-serif" font-size="20.4">0.83</text>
<line x1="630" y1="912.5" x2="1060" y2="912.5" stroke="#e5e7eb"/>
<text class="tick-label" x="622" y="916.5" text-anchor="end" font-family="sans-serif" font-size="20.4">0.92</text>
<line x1="630" y1="866.2" x2="1060" y2="866.2" stroke="#e5e7eb"/>
<text class="tick-label" x="622" y="870.2" text-anchor="end" font-family="sans-serif" font-size="20.4">1.00</text>
<line x1="630" y1="820.0" x2="1060" y2="820.0" stroke="#e5e7eb"/>
<text class="tick-label" x="622" y="824.0" text-anchor="end" font-family="sans-serif" font-size="20.4">1.08</text>
<text class="tick-label" x="630.0" y="1027" text-anchor="middle" font-family="sans-serif" font-size="20.4">0.00</text>
<text class="tick-label" x="737.5" y="1027" text-anchor="middle" font-family="sans-serif" font-size="20.4">0.02</text>
<text class="tick-label" x="845.0" y="1027" text-anchor="middle" font-family="sans-serif" font-size="20.4">0.05</text>
<text class="tick-label" x="952.5" y="1027" text-anchor="middle" font-family="sans-serif" font-size="20.4">0.07</text>
<text class="tick-label" x="1060.0" y="1027" text-anchor="middle" font-family="sans-serif" font-size="20.4">0.09</text>
<polyline points="630.0,843.3 634.3,844.9 638.6,846.5 642.9,848.1 647.2,849.7 651.5,851.3 655.8,852.9 660.1,854.5 664.4,856.0 668.7,857.6 673.0,859.2 677.3,860.8 681.6,862.4 685.9,864.0 690.2,865.6 694.5,867.2 698.8,868.8 703.1,870.4 707.4,872.0 711.7,873.6 716.0,875.2 720.3,876.8 724.6,878.4 728.9,880.0 733.2,881.5 737.5,883.1 741.8,884.7 746.1,886.3 750.4,887.9 754.7,889.5 759.0,891.1 763.3,892.7 767.6,894.3 771.9,895.9 776.2,897.5 780.5,899.1 784.8,900.7 789.1,902.3 793.4,903.9 797.7,905.4 802.0,907.0 806.3,908.6 810.6,910.2 814.9,911.8 819.2,913.4 823.5,915.0 827.8,916.6 832.1,918.2 836.4,919.8 840.7,921.4 845.0,923.0 849.3,924.6 853.6,926.2 857.9,927.8 862.2,929.4 866.5,930.9 870.8,932.5 875.1,934.1 879.4,935.7 883.7,937.3 888.0,938.9 892.3,940.5 896.6,942.1 900.9,943.7 905.2,945.3 909.5,946.9 913.8,948.5 918.1,950.1 922.4,951.7 926.7,953.3 931.0,954.9 935.3,956.4 939.6,958.0 943.9,959.6 948.2,961.2 952.5,962.8 956.8,964.4 961.1,966.0 965.4,967.6 969.7,969.2 974.0,970.8 978.3,972.4 982.6,974.0 986.9,975.6 991.2,977.2 995.5,978.8 999.8,980.4 1004.1,981.9 1008.4,983.5 1012.7,985.1 1017.0,986.7 1021.3,988.3 1025.6,989.9 1029.9,991.5 1034.2,993.1 1038.5,994.7 1042.8,996.3 1047.1,997.9 1051.4,999.5 1055.7,1001.1 1060.0,1002.7" fill="none" stroke="#c2410c" stroke-width="2"/>
<line x1="1028.1" y1="991.2" x2="1028.1" y2="990.4" stroke="#2563eb"/>
<circle cx="1028.1" cy="990.8" r="4" fill="white" stroke="#2563eb" stroke-width="1.5"/>
<line x1="1006.2" y1="983.3" x2="1006.2" y2="977.3" stroke="#2563eb"/>
<circle cx="1006.2" cy="980.3" r="4" fill="white" stroke="#2563eb" stroke-width="1.5"/>
<line x1="986.6" y1="976.1" x2="986.6" y2="975.9" stroke="#2563eb"/>
<circle cx="986.6" cy="976.0" r="4" fill="white" stroke="#2563eb" stroke-width="1.5"/>
<line x1="968.9" y1="968.5" x2="968.9" y2="967.6" stroke="#2563eb"/>
<circle cx="968.9" cy="968.1" r="4" fill="white" stroke="#2563eb" stroke-width="1.5"/>
<line x1="959.4" y1="966.6" x2="959.4" y2="964.1" stroke="#2563eb"/>
<circle cx="959.4" cy="965.4" r="4" fill="white" stroke="#2563eb" stroke-width="1.5"/>
<line x1="952.9" y1="967.0" x2="952.9" y2="964.2" stroke="#2563eb"/>
<circle cx="952.9" cy="965.6" r="4" fill="white" stroke="#2563eb" stroke-width="1.5"/>
<line x1="944.2" y1="963.7" x2="944.2" y2="959.0" stroke="#2563eb"/>
<circle cx="944.2" cy="961.4" r="4" fill="white" stroke="#2563eb" stroke-width="1.5"/>
<line x1="938.3" y1="958.1" x2="938.3" y2="956.9" stroke="#2563eb"/>
<circle cx="938.3" cy="957.5" r="4" fill="white" stroke="#2563eb" stroke-width="1.5"/>
<text x="638" y="840" font-family="sans-serif" font-size="22.1">σ=2, Qₘ</text>
<text x="1052" y="840" text-anchor="end" font-family="sans-serif" font-size="18.7">Qₘ,∞=1.038</text>
<text class="axis-label" x="845.0" y="1053" text-anchor="middle" font-family="sans-serif" font-size="20.4">1/log(<tspan font-style="italic">L</tspan>/<tspan font-style="italic">q</tspan>)</text>
<text x="823.5" y="897.0" text-anchor="middle" font-family="sans-serif" font-size="18.7" font-style="italic">q = 0.000436</text>
<text x="575" y="912.5" text-anchor="middle" font-family="sans-serif" font-size="20.4" transform="rotate(-90 575 912.5)">Qₘ(L)</text>
</svg>
