<svg xmlns="http://www.w3.org/2000/svg" width="1120" height="335" viewBox="0 35 1120 335">
<rect width="100%" height="100%" fill="white"/>
<rect x="120" y="55" width="360" height="255" fill="none" stroke="#555"/>
<line x1="155.0" y1="310" x2="155.0" y2="315" stroke="#555"/>
<text class="tick-label" x="155.0" y="331" text-anchor="middle" font-family="sans-serif" font-size="22">64</text>
<line x1="251.7" y1="310" x2="251.7" y2="315" stroke="#555"/>
<text class="tick-label" x="251.7" y="331" text-anchor="middle" font-family="sans-serif" font-size="22">128</text>
<line x1="348.3" y1="310" x2="348.3" y2="315" stroke="#555"/>
<text class="tick-label" x="348.3" y="331" text-anchor="middle" font-family="sans-serif" font-size="22">256</text>
<line x1="445.0" y1="310" x2="445.0" y2="315" stroke="#555"/>
<text class="tick-label" x="445.0" y="331" text-anchor="middle" font-family="sans-serif" font-size="22">512</text>
<line x1="120" y1="310.0" x2="480" y2="310.0" stroke="#e5e7eb"/>
<text class="tick-label" x="113" y="314.0" text-anchor="end" font-family="sans-serif" font-size="22">-0.25</text>
<line x1="120" y1="246.2" x2="480" y2="246.2" stroke="#e5e7eb"/>
<text class="tick-label" x="113" y="250.2" text-anchor="end" font-family="sans-serif" font-size="22">0.54</text>
<line x1="120" y1="182.5" x2="480" y2="182.5" stroke="#e5e7eb"/>
<text class="tick-label" x="113" y="186.5" text-anchor="end" font-family="sans-serif" font-size="22">1.32</text>
<line x1="120" y1="118.8" x2="480" y2="118.8" stroke="#e5e7eb"/>
<text class="tick-label" x="113" y="122.8" text-anchor="end" font-family="sans-serif" font-size="22">2.11</text>
<line x1="120" y1="55.0" x2="480" y2="55.0" stroke="#e5e7eb"/>
<text class="tick-label" x="113" y="59.0" text-anchor="end" font-family="sans-serif" font-size="22">2.90</text>
<text x="128" y="73" font-family="sans-serif" font-size="25.8">σ=1.75</text>
<text class="axis-label" x="300.0" y="349" text-anchor="middle" font-family="sans-serif" font-size="24">Lₘᵢₙ</text>
<text x="38" y="182.5" text-anchor="middle" font-family="sans-serif" font-size="21" transform="rotate(-90 38 182.5)">Rₚ,∞</text>
<line x1="155.0" y1="109.8" x2="155.0" y2="102.1" stroke="#0f766e"/>
<circle cx="155.0" cy="106.1" r="4" fill="#0f766e"/>
<line x1="251.7" y1="100.7" x2="251.7" y2="85.2" stroke="#0f766e"/>
<circle cx="251.7" cy="92.9" r="4" fill="#0f766e"/>
<line x1="348.3" y1="90.7" x2="348.3" y2="70.9" stroke="#0f766e"/>
<circle cx="348.3" cy="81.0" r="4" fill="#0f766e"/>
<line x1="445.0" y1="93.7" x2="445.0" y2="70.7" stroke="#0f766e"/>
<circle cx="445.0" cy="83.5" r="4" fill="#0f766e"/>
<polyline points="155.0,106.1 251.7,92.9 348.3,81.0 445.0,83.5" fill="none" stroke="#0f766e" stroke-width="2"/>
<line x1="155.0" y1="263.6" x2="155.0" y2="261.4" stroke="#c2410c"/>
<rect x="151.0" y="258.5" width="8" height="8" fill="#c2410c"/>
<line x1="251.7" y1="255.8" x2="251.7" y2="250.8" stroke="#c2410c"/>
<rect x="247.7" y="249.3" width="8" height="8" fill="#c2410c"/>
<line x1="348.3" y1="249.9" x2="348.3" y2="243.6" stroke="#c2410c"/>
<rect x="344.3" y="242.9" width="8" height="8" fill="#c2410c"/>
<line x1="445.0" y1="250.0" x2="445.0" y2="242.7" stroke="#c2410c"/>
<rect x="441.0" y="242.5" width="8" height="8" fill="#c2410c"/>
<polyline points="155.0,262.5 251.7,253.3 348.3,246.9 445.0,246.5" fill="none" stroke="#c2410c" stroke-width="2"/>
<circle cx="325" cy="72" r="4" fill="#0f766e"/>
<text x="334" y="76" font-family="sans-serif" font-size="25.8">power</text>
<rect x="420" y="68" width="8" height="8" fill="#c2410c"/>
<text x="434" y="76" font-family="sans-serif" font-size="25.8">log</text>
<rect x="680" y="55" width="360" height="255" fill="none" stroke="#555"/>
<line x1="715.0" y1="310" x2="715.0" y2="315" stroke="#555"/>
<text class="tick-label" x="715.0" y="331" text-anchor="middle" font-family="sans-serif" font-size="22">64</text>
<line x1="811.7" y1="310" x2="811.7" y2="315" stroke="#555"/>
<text class="tick-label" x="811.7" y="331" text-anchor="middle" font-family="sans-serif" font-size="22">128</text>
<line x1="908.3" y1="310" x2="908.3" y2="315" stroke="#555"/>
<text class="tick-label" x="908.3" y="331" text-anchor="middle" font-family="sans-serif" font-size="22">256</text>
<line x1="1005.0" y1="310" x2="1005.0" y2="315" stroke="#555"/>
<text class="tick-label" x="1005.0" y="331" text-anchor="middle" font-family="sans-serif" font-size="22">512</text>
<line x1="680" y1="310.0" x2="1040" y2="310.0" stroke="#e5e7eb"/>
<text class="tick-label" x="673" y="314.0" text-anchor="end" font-family="sans-serif" font-size="22">-0.25</text>
<line x1="680" y1="246.2" x2="1040" y2="246.2" stroke="#e5e7eb"/>
<text class="tick-label" x="673" y="250.2" text-anchor="end" font-family="sans-serif" font-size="22">0.39</text>
<line x1="680" y1="182.5" x2="1040" y2="182.5" stroke="#e5e7eb"/>
<text class="tick-label" x="673" y="186.5" text-anchor="end" font-family="sans-serif" font-size="22">1.02</text>
<line x1="680" y1="118.8" x2="1040" y2="118.8" stroke="#e5e7eb"/>
<text class="tick-label" x="673" y="122.8" text-anchor="end" font-family="sans-serif" font-size="22">1.66</text>
<line x1="680" y1="55.0" x2="1040" y2="55.0" stroke="#e5e7eb"/>
<text class="tick-label" x="673" y="59.0" text-anchor="end" font-family="sans-serif" font-size="22">2.30</text>
<text x="688" y="73" font-family="sans-serif" font-size="25.8">σ=2.0</text>
<text class="axis-label" x="860.0" y="349" text-anchor="middle" font-family="sans-serif" font-size="24">Lₘᵢₙ</text>
<text x="598" y="182.5" text-anchor="middle" font-family="sans-serif" font-size="21" transform="rotate(-90 598 182.5)">Rₚ,∞</text>
<line x1="715.0" y1="271.4" x2="715.0" y2="232.6" stroke="#0f766e"/>
<circle cx="715.0" cy="259.3" r="4" fill="#0f766e"/>
<line x1="811.7" y1="286.0" x2="811.7" y2="245.8" stroke="#0f766e"/>
<circle cx="811.7" cy="278.0" r="4" fill="#0f766e"/>
<line x1="908.3" y1="290.3" x2="908.3" y2="277.3" stroke="#0f766e"/>
<circle cx="908.3" cy="286.9" r="4" fill="#0f766e"/>
<line x1="1005.0" y1="140.1" x2="1005.0" y2="66.9" stroke="#0f766e"/>
<circle cx="1005.0" cy="90.7" r="4" fill="#0f766e"/>
<polyline points="715.0,259.3 811.7,278.0 908.3,286.9 1005.0,90.7" fill="none" stroke="#0f766e" stroke-width="2"/>
<line x1="715.0" y1="240.1" x2="715.0" y2="215.0" stroke="#c2410c"/>
<rect x="711.0" y="212.2" width="8" height="8" fill="#c2410c"/>
<line x1="811.7" y1="270.8" x2="811.7" y2="217.4" stroke="#c2410c"/>
<rect x="807.7" y="251.3" width="8" height="8" fill="#c2410c"/>
<line x1="908.3" y1="284.1" x2="908.3" y2="258.5" stroke="#c2410c"/>
<rect x="904.3" y="273.3" width="8" height="8" fill="#c2410c"/>
<line x1="1005.0" y1="241.9" x2="1005.0" y2="221.0" stroke="#c2410c"/>
<rect x="1001.0" y="225.4" width="8" height="8" fill="#c2410c"/>
<polyline points="715.0,216.2 811.7,255.3 908.3,277.3 1005.0,229.4" fill="none" stroke="#c2410c" stroke-width="2"/>
<circle cx="885" cy="72" r="4" fill="#0f766e"/>
<text x="894" y="76" font-family="sans-serif" font-size="25.8">power</text>
<rect x="980" y="68" width="8" height="8" fill="#c2410c"/>
<text x="994" y="76" font-family="sans-serif" font-size="25.8">log</text>
</svg>
